<svg width="22" height="16" viewBox="0 0 22 16" fill="none" xmlns="http://www.w3.org/2000/svg">
<path fill-rule="evenodd" clip-rule="evenodd" d="M0.083374 1C0.083374 0.447715 0.531089 0 1.08337 0H20.9167C21.469 0 21.9167 0.447715 21.9167 1C21.9167 1.55228 21.469 2 20.9167 2H1.08337C0.531089 2 0.083374 1.55228 0.083374 1ZM0.083374 15C0.083374 14.4477 0.531089 14 1.08337 14H20.9167C21.469 14 21.9167 14.4477 21.9167 15C21.9167 15.5523 21.469 16 20.9167 16H1.08337C0.531089 16 0.083374 15.5523 0.083374 15ZM1.08337 7C0.531089 7 0.083374 7.44772 0.083374 8C0.083374 8.55229 0.531089 9 1.08337 9H20.9167C21.469 9 21.9167 8.55229 21.9167 8C21.9167 7.44772 21.469 7 20.9167 7H1.08337Z" fill="#25282B"/>
</svg>
